<svg data-v-423bf9ae="" xmlns="http://www.w3.org/2000/svg" viewBox="0 0 69.8543232410561 60" class="icon"><!----><!----><!----><!----><g data-v-423bf9ae="" id="aa195716-8609-4903-bf7e-35b2027ba7e2" transform="matrix(0.7811489335327314,0,0,0.7811489335327314,-4.047790534517979,-3.928446629753651)" stroke="none" fill="black"><switch><g><path d="M46.66 81.839c-6.11 0-12.19-1.105-17.583-3.195-9.319-3.598-16.64-10.685-20.61-19.953a40.787 40.787 0 0 1-2.981-11.68 4.334 4.334 0 0 1-.014-.167 29.851 29.851 0 0 1-.016-1.12c-.002-.636-.008-2.204-.066-2.924a3.626 3.626 0 0 1 5.203-4.367c2.025 1.146 5.101 2.669 7.974 3.781-1.221-3.68-2.045-8.194-.697-11.954a3.628 3.628 0 0 1 5.351-1.842c3.949 2.496 11.18 6.292 15.647 7.104a3.36 3.36 0 0 1-.025-.244c-.229-3.354-.221-6.359.026-9.185.798-9.352 6.147-16.355 14.674-19.208 5.52-1.841 11.562-2.34 16.778-1.373 2.855.536 5.351 1.537 7.423 2.976 1.066.73 2.125 1.664 3.214 2.838.323.34.622.778 1.034 1.386.11.16.264.386.415.601l9.179 1.554a3.623 3.623 0 0 1 2.35 5.673l-6.214 8.758c.119.634.299 1.436.386 1.818.12.54.209.961.234 1.142.011.074.02.147.025.222a65.805 65.805 0 0 1-.081 11.88c-1.085 11.486-5.809 21.579-12.955 27.678-7.399 6.32-17.583 9.801-28.671 9.801zM12.874 47.686a33.456 33.456 0 0 0 2.267 8.172c3.186 7.436 9.066 13.134 16.552 16.023 4.571 1.772 9.744 2.707 14.968 2.707 9.228 0 17.962-2.939 23.964-8.064 5.728-4.887 9.534-13.218 10.447-22.859.337-3.435.365-6.933.085-10.414-.022-.105-.068-.305-.122-.54-.693-3.082-1.112-4.942.056-6.595l3.593-5.062-4.661-.789c-1.856-.292-2.859-1.764-4.021-3.468-.159-.233-.3-.447-.411-.593-.714-.761-1.348-1.323-1.962-1.744-1.247-.866-2.801-1.473-4.637-1.817-4.003-.744-8.789-.334-13.149 1.122-7.354 2.46-9.361 8.402-9.749 12.954-.21 2.416-.219 5.01-.024 7.929l.518 3.557a3.625 3.625 0 0 1-1.775 3.661c-1.225.707-2.709 1.066-4.412 1.066-4.666 0-11.045-2.847-15.579-5.238.697 2.97 2.135 6.136 3.092 7.808a3.627 3.627 0 0 1-2.899 5.424c-3.408.224-8.302-1.519-12.141-3.24z"></path></g></switch></g><!----></svg>